<svg width="16" height="16" viewBox="0 0 16 16" fill="none" xmlns="http://www.w3.org/2000/svg">
<path fill-rule="evenodd" clip-rule="evenodd" d="M7.46557 14.0994C7.90629 13.05 8.30561 12.4078 8.70069 11.7724C8.7203 11.7409 8.73991 11.7094 8.75951 11.6778C9.16776 11.0204 9.58251 10.3355 10.0774 9.13191C10.2297 8.7615 10.5908 8.50697 11.003 8.50493L11.5 8.50248L11.5 2.00574L10.6931 2.01494C10.6664 2.01524 10.6399 2.01455 10.6117 2.01256C10.4011 1.9977 8.51868 1.86676 6.57575 1.79557C5.60338 1.75994 4.623 1.73956 3.83188 1.75551C3.43564 1.7635 3.09503 1.78047 2.83033 1.80783C2.69792 1.82152 2.59114 1.83715 2.50949 1.85381C2.46896 1.86208 2.438 1.86993 2.41535 1.87675C2.3918 1.88385 2.38338 1.88801 2.3853 1.88708C2.03499 2.0574 1.91459 2.27923 1.88567 2.44797C1.85416 2.63182 1.91831 2.81373 2.03905 2.93113C2.15586 3.04472 2.21 3.20811 2.18413 3.36897C2.15827 3.52985 2.05564 3.66802 1.9091 3.73927C1.68129 3.85003 1.50642 3.94939 1.38071 4.04385C1.25239 4.14027 1.21186 4.20465 1.2005 4.23226C1.20034 4.23265 1.20015 4.23308 1.19995 4.23354C1.19611 4.24242 1.18612 4.26546 1.21538 4.33659C1.25311 4.4283 1.34872 4.57509 1.56286 4.78332C1.67967 4.89691 1.73381 5.06029 1.70794 5.22116C1.68208 5.38203 1.57945 5.52021 1.43291 5.59145C1.06629 5.76971 1 5.97288 1 6.06788C1 6.16288 1.06629 6.36605 1.43291 6.5443C1.57945 6.61555 1.68208 6.75372 1.70794 6.91459C1.73381 7.07546 1.67967 7.23885 1.56286 7.35244C1.14087 7.76278 1.00442 8.10044 1.00011 8.31431C0.996737 8.48167 1.07223 8.66919 1.38671 8.83606C2.55761 9.09948 4.1654 8.80271 5.12397 8.56428C5.7867 8.39944 6.46685 8.92457 6.4114 9.64027C6.356 10.3555 6.28251 11.4558 6.26735 12.417C6.25974 12.8993 6.2671 13.3336 6.29635 13.6621C6.31108 13.8274 6.33014 13.9513 6.35075 14.0351C6.35514 14.0529 6.35911 14.0668 6.36241 14.0774C6.4818 14.173 6.66807 14.2419 6.88978 14.2494C7.12035 14.2571 7.32818 14.1961 7.46557 14.0994ZM12.5 2.00001L12.5 8.50001H15L15 2.00001H12.5ZM12 9.50001L11.0085 9.50492C11.0083 9.50503 11.0079 9.50523 11.0075 9.50555C11.0055 9.50689 11.0035 9.50913 11.0023 9.51219C10.4777 10.788 10.0312 11.5255 9.60904 12.2053C9.5902 12.2357 9.57143 12.2659 9.55272 12.296C9.15988 12.9278 8.79412 13.5162 8.38242 14.4989C8.33538 14.6111 8.25415 14.7515 8.11378 14.8628C7.75416 15.1481 7.28662 15.2633 6.8561 15.2488C6.42613 15.2343 5.96343 15.0877 5.62762 14.7612C5.47311 14.6109 5.41099 14.4011 5.37972 14.274C5.34185 14.1201 5.31712 13.9397 5.30029 13.7508C5.26644 13.3706 5.25967 12.8958 5.26747 12.4013C5.28312 11.4088 5.35853 10.2842 5.41439 9.56303C5.41461 9.56023 5.41431 9.55952 5.41373 9.55824C5.41267 9.55589 5.40958 9.5508 5.4029 9.54532C5.38832 9.53337 5.37452 9.53243 5.36534 9.53471C4.40402 9.77383 2.58126 10.1341 1.1551 9.80893C1.08112 9.79207 1.0067 9.76569 0.934935 9.72832C0.354228 9.4259 -0.0124111 8.92526 0.000313759 8.29415C0.00872517 7.877 0.183017 7.46689 0.467963 7.08498C0.178386 6.81186 0 6.46341 0 6.06788C0 5.66991 0.180587 5.31961 0.473318 5.04574C0.216719 4.67405 0.10323 4.27108 0.275689 3.85184C0.383379 3.59004 0.58094 3.39396 0.779999 3.24439C0.844128 3.1962 0.912313 3.14997 0.983476 3.10545C0.883686 2.84887 0.851261 2.56365 0.900043 2.27904C0.99017 1.7532 1.34596 1.28047 1.94804 0.987742C2.15249 0.888336 2.44772 0.842052 2.72751 0.813133C3.03134 0.781731 3.40279 0.76396 3.81172 0.755713C4.63093 0.739192 5.63324 0.760364 6.61237 0.796241C8.57124 0.868019 10.4659 0.999784 10.6817 1.01502C10.6819 1.01503 10.6816 1.01501 10.6817 1.01502L12 0.999978L15 1.00001C15.5523 1.00001 16 1.44773 16 2.00001V8.50001C16 9.05229 15.5523 9.50001 15 9.50001H12Z" fill="#064AA7"/>
</svg>
