<svg width="26" height="20" viewBox="0 0 26 20" fill="none" xmlns="http://www.w3.org/2000/svg">
<path d="M22.4237 14.3299L24.0433 8.72595C24.6184 6.73631 23.4716 4.65724 21.482 4.0822C19.4923 3.50717 17.4132 4.65394 16.8382 6.64357L15.2186 12.2476C14.6435 14.2372 15.7903 16.3163 17.78 16.8913C19.7696 17.4663 21.8487 16.3196 22.4237 14.3299Z" fill="white"/>
<path fill-rule="evenodd" clip-rule="evenodd" d="M16.4379 6.52787C17.0768 4.31716 19.3869 3.04297 21.5976 3.6819C23.8083 4.32082 25.0825 6.63091 24.4435 8.84162L22.8239 14.4456C22.185 16.6563 19.8749 17.9305 17.6642 17.2916C15.4535 16.6526 14.1793 14.3426 14.8182 12.1318L16.4379 6.52787ZM21.3662 4.48247C19.5976 3.97133 17.7496 4.99067 17.2384 6.75924L15.6188 12.3632C15.1077 14.1318 16.127 15.9799 17.8956 16.491C19.6641 17.0021 21.5122 15.9828 22.0233 14.2142L23.643 8.61024C24.1541 6.84167 23.1348 4.99361 21.3662 4.48247Z" fill="#0F428A"/>
<path d="M23.2286 11.544L16.0234 9.46167L15.2183 12.2476C14.6432 14.2372 15.79 16.3163 17.7796 16.8914C19.7693 17.4664 21.8483 16.3196 22.4234 14.33L23.2286 11.544Z" fill="#D6E3F5"/>
<path fill-rule="evenodd" clip-rule="evenodd" d="M15.7393 8.94568L23.7449 11.2594L22.8241 14.4457C22.1852 16.6564 19.8751 17.9305 17.6644 17.2916C15.4537 16.6527 14.1795 14.3426 14.8184 12.1319L15.7393 8.94568ZM16.3085 9.97762L15.619 12.3633C15.1078 14.1318 16.1272 15.9799 17.8957 16.491C19.6643 17.0022 21.5124 15.9828 22.0235 14.2143L22.713 11.8286L16.3085 9.97762Z" fill="#0F428A"/>
<path fill-rule="evenodd" clip-rule="evenodd" d="M16.1035 9.03473L23.3887 11.1402L23.1573 11.9408L15.8721 9.8353L16.1035 9.03473Z" fill="#0F428A"/>
<path d="M11.6043 8.59846C12.491 11.2136 11.0898 14.0525 8.47462 14.9392C5.85944 15.8259 3.02058 14.4247 2.13386 11.8096C1.24715 9.19437 2.64835 6.35551 5.26353 5.4688C7.87872 4.58208 10.7176 5.98328 11.6043 8.59846Z" fill="#D6E3F5"/>
<path fill-rule="evenodd" clip-rule="evenodd" d="M5.3974 5.8634C3.00015 6.67622 1.71572 9.27851 2.52854 11.6758C3.34137 14.073 5.94365 15.3574 8.3409 14.5446C10.7382 13.7318 12.0226 11.1295 11.2098 8.73226C10.3969 6.33501 7.79466 5.05057 5.3974 5.8634ZM1.73934 11.9434C0.778729 9.11023 2.2967 6.03481 5.12981 5.0742C7.96293 4.11359 11.0384 5.63155 11.999 8.46467C12.9596 11.2978 11.4416 14.3732 8.60849 15.3338C5.77538 16.2944 2.69995 14.7765 1.73934 11.9434Z" fill="#0F428A"/>
<path fill-rule="evenodd" clip-rule="evenodd" d="M5.2636 5.46882C5.48153 5.39492 5.71811 5.51169 5.792 5.72962L6.32718 7.30803C6.40107 7.52596 6.28431 7.76253 6.06637 7.83642C5.84844 7.91032 5.61187 7.79355 5.53798 7.57562L5.0028 5.99721C4.9289 5.77928 5.04567 5.54271 5.2636 5.46882Z" fill="#0F428A"/>
<path fill-rule="evenodd" clip-rule="evenodd" d="M7.67181 12.5716C7.88974 12.4977 8.12631 12.6145 8.2002 12.8324L8.73538 14.4108C8.80928 14.6287 8.69251 14.8653 8.47458 14.9392C8.25665 15.0131 8.02007 14.8963 7.94618 14.6784L7.411 13.1C7.33711 12.8821 7.45387 12.6455 7.67181 12.5716Z" fill="#0F428A"/>
<path fill-rule="evenodd" clip-rule="evenodd" d="M19.3688 8.43821H14.7498L17.105 0.416687L7.70215 10.7285H11.8227L9.96592 18.75L19.3688 8.43821Z" fill="#F07584"/>
<path fill-rule="evenodd" clip-rule="evenodd" d="M17.3095 0.0535396C17.4786 0.148668 17.5597 0.347912 17.505 0.534066L15.3066 8.02154H19.369C19.534 8.02154 19.6835 8.11895 19.7502 8.26993C19.8168 8.42091 19.7881 8.597 19.6769 8.71896L10.274 19.0308C10.1463 19.1708 9.94022 19.207 9.77243 19.1189C9.60465 19.0309 9.51743 18.8407 9.56016 18.6561L11.2987 11.1452H7.70232C7.53728 11.1452 7.3878 11.0477 7.32114 10.8968C7.25449 10.7458 7.28323 10.5697 7.39444 10.4477L16.7973 0.135936C16.9281 -0.00742397 17.1404 -0.0415886 17.3095 0.0535396ZM8.64614 10.3118H11.8229C11.9499 10.3118 12.07 10.3698 12.149 10.4692C12.2281 10.5686 12.2575 10.6987 12.2288 10.8225L10.7311 17.2926L18.4252 8.85488H14.75C14.6187 8.85488 14.4951 8.793 14.4164 8.68791C14.3377 8.58282 14.3132 8.44679 14.3502 8.32082L16.1969 2.03116L8.64614 10.3118Z" fill="#0F428A"/>
</svg>
